<?xml version="1.0" standalone="no"?>
<!DOCTYPE svg PUBLIC "-//W3C//DTD SVG 20010904//EN"
 "http://www.w3.org/TR/2001/REC-SVG-20010904/DTD/svg10.dtd">
<svg version="1.0" xmlns="http://www.w3.org/2000/svg"
 width="96.000000pt" height="96.000000pt" viewBox="0 0 96.000000 96.000000"
 preserveAspectRatio="xMidYMid meet">
<metadata>
Created by potrace 1.11, written by Peter Selinger 2001-2013
</metadata>
<g transform="translate(0.000000,96.000000) scale(0.100000,-0.100000)"
fill="#000000" stroke="none">
<path d="M0 480 l0 -480 480 0 480 0 0 480 0 480 -480 0 -480 0 0 -480z m181
100 c17 0 19 -8 19 -100 l0 -100 25 0 c18 0 25 -5 25 -20 0 -18 -7 -20 -82
-20 -80 0 -81 0 -63 20 10 11 26 20 37 20 16 0 18 9 18 81 0 84 -2 86 -42 51
-22 -19 -23 -10 -2 31 23 45 37 62 42 48 2 -6 12 -11 23 -11z m139 -45 c0 -58
17 -58 53 0 22 33 35 45 54 45 26 0 27 1 -16 -65 l-26 -40 31 -31 32 -30 5 39
c3 22 15 53 26 68 l21 28 -22 15 c-21 15 -13 16 110 16 l132 0 -20 -32 c-28
-47 -26 -58 15 -58 35 0 35 0 35 45 0 38 3 45 20 45 17 0 20 -7 20 -42 0 -29
7 -49 22 -65 l21 -23 -21 0 c-20 0 -22 -5 -22 -55 0 -48 -2 -55 -20 -55 -18 0
-20 7 -20 55 l0 55 -59 0 -60 0 -3 -52 c-3 -46 -6 -53 -25 -56 -22 -3 -23 0
-23 52 l0 56 -40 0 c-34 0 -40 -3 -41 -22 -6 -82 13 -156 49 -200 l27 -32 -35
20 c-23 13 -44 39 -62 74 -15 30 -28 46 -28 36 0 -27 -46 -103 -70 -116 -25
-14 -50 -13 -27 1 28 16 57 88 57 142 0 38 -5 53 -25 72 -13 14 -33 25 -45 25
-18 0 -20 -6 -20 -55 0 -48 -2 -55 -20 -55 -19 0 -20 7 -20 104 0 96 -2 105
-22 119 -22 16 -22 16 20 16 l42 1 0 -45z"/>
<path d="M630 538 c0 -32 0 -32 16 -10 15 22 12 42 -7 42 -5 0 -9 -15 -9 -32z"/>
<path d="M533 515 l-28 -24 38 -1 c33 0 37 3 37 25 0 31 -11 32 -47 0z"/>
</g>
</svg>
